PathFileType	4	(X/Y/Z)	C:\Users\°ÂÌØÂü\Desktop\20210112\bx_y_10_902-Unnamed.trc
DataRate	CameraRate	NumFrames	NumMarkers	Units	OrigDataRate	OrigDataStartFrame	OrigNumFrames
50.00	50.00	       9	0	mm	50.00	259	       516
Frame#	Time	
		

259	5.160	-758.33521	202.45816	535.40204	-795.11011	272.00620	871.24719	-739.62079	-21.71996	799.75342	-485.36423	242.10452	1386.35413	-678.36438	50.77323	163.89609	-791.77820	66.29182	566.05566	-821.34912	241.89645	566.78735	-845.68634	255.53508	488.38202	-783.34900	139.79199	567.79822	-500.36288	-98.49050	1395.14697	-665.33252	-71.94076	158.78738	-720.28876	157.25449	221.09514	-776.84747	227.37372	201.25215	-622.95258	-81.81574	156.53926	-882.72351	296.04178	144.50246	-742.63763	196.09410	1035.26941	-605.35358	17.52093	169.60811	-562.56427	-37.72408	163.23918	-678.03278	175.97722	161.70151	-597.25244	223.75504	174.18320	-666.48505	300.40408	158.46086	-628.92511	307.60806	161.10255	-563.03754	259.71689	164.89211	-528.12592	303.85800	146.35432	-290.19272	82.58405	1608.05859	-824.23761	276.51651	740.01855	-755.44690	-22.39994	1018.93402	-518.20392	-72.30897	143.04060	-728.36353	67.99047	221.12379	-835.94147	-58.96712	704.73083	-774.86255	-14.44042	201.01302	-798.94098	48.24520	171.64421	-800.58801	177.12216	181.24536	-843.67554	-46.23030	471.81522	-876.58929	-77.90937	140.86726	-834.19916	246.19781	627.03009	-815.33026	-40.88495	610.07037	-817.28986	-36.73318	558.20496	-756.55225	6.02907	523.67938	-735.73840	203.60390	812.14325	-944.02386	83.17845	1077.38110	
260	5.180	-760.59906	202.61090	535.24994	-798.69763	272.13141	870.58795	-743.36322	-21.98382	798.82642	-480.45071	241.17542	1376.80286	-678.75122	50.46953	164.46957	-794.02667	66.20429	565.58734	-823.46405	242.46254	566.30383	-847.35138	255.55740	487.91418	-785.14606	139.31863	567.70880	-494.45642	-98.24098	1385.31873	-665.31091	-72.04929	158.92162	-720.50293	157.34898	220.97400	-776.87042	227.43703	201.15039	-622.89392	-81.91508	156.65227	-882.82892	296.04059	144.60925	-745.91608	195.49666	1033.34753	-605.66089	17.09889	169.96373	-562.64355	-37.79274	163.17091	-678.08911	176.00670	161.86514	-597.47327	223.87050	174.09935	-666.41956	300.46854	158.46307	-628.78088	307.45959	160.96062	-563.00769	259.56976	164.89763	-528.10443	303.97977	146.36601	-281.57495	82.23947	1594.61230	-827.67346	275.52441	739.09021	-758.32440	-23.34877	1017.65997	-518.02069	-72.64216	143.15276	-729.10419	67.43530	221.41501				-774.97870	-14.76110	200.59065	-799.23651	47.87186	171.51009	-800.61749	176.98712	181.30283	-845.71600	-46.86740	471.16809	-876.02838	-78.54763	141.55200	-836.05914	246.10474	626.68390	-817.74139	-41.70755	609.79596	-819.45868	-37.14728	557.58008	-758.58258	5.69514	523.40582				-945.82166	83.38215	1077.52844	-738.68939	203.68184	811.25513	-840.94635	-64.09626	706.06903	
261	5.200	-762.51941	202.59959	535.05841	-802.77637	271.42221	869.87524	-746.66101	-22.55048	798.09943	-475.73016	240.67154	1367.71033	-678.82654	50.22733	164.72278				-825.97522	242.40060	566.25476	-849.14758	255.61249	486.95898	-787.28461	140.04201	567.11652	-489.02475	-98.81392	1375.88416	-665.53418	-72.17032	158.59698	-720.91852	157.63637	221.43158	-776.76227	227.33565	200.98759	-622.99500	-81.87937	156.63023	-882.98114	295.95889	144.68474	-748.99438	195.35153	1031.37061	-605.72400	16.88429	170.38615	-562.66101	-37.48501	163.26341	-678.24304	176.11145	161.94522	-597.55133	223.77571	174.14893	-666.41956	300.46854	158.46307	-628.77380	307.56699	161.23399	-563.12933	259.51563	164.84489	-528.21204	303.96857	146.43666	-273.67303	82.18433	1581.36365	-831.32397	275.28583	738.05396	-761.21027	-22.82679	1015.88446	-518.07251	-72.45686	142.89926	-729.33777	67.16376	221.53877				-775.17450	-14.65438	200.48737	-799.45837	47.58454	171.32318	-800.69397	177.10085	181.12605	-846.80554	-47.23830	470.69498	-876.03320	-78.59757	141.50241	-838.78198	246.73355	626.13873	-819.80334	-41.71737	609.17737	-820.84265	-37.41994	557.19391	-760.14825	5.50519	522.99640				-947.93573	82.99465	1077.24377	-741.96405	203.83835	810.29224	-843.51556	-65.93652	705.79248	
262	5.220	-763.97791	202.45830	535.04175	-806.41620	271.92590	869.29041	-749.14227	-23.26798	798.28448	-471.02432	240.47545	1358.78784	-678.79449	50.32649	164.73430				-827.34369	242.08638	565.17828	-850.86957	255.74623	486.70508	-789.25562	139.83295	566.77350	-483.23166	-98.68491	1365.38232	-665.52423	-72.27478	158.64986	-721.17743	157.85867	221.84801	-777.07495	227.32355	200.89748	-622.91101	-81.88767	156.56572	-883.00885	295.73770	144.47835				-605.66418	17.00091	170.38380	-562.73035	-37.45631	163.28723	-677.99500	176.39301	162.27190	-597.90277	223.87367	174.08472	-666.50854	300.49915	158.36931	-628.79340	307.57172	161.10298	-563.08997	259.48801	164.84766	-528.10168	303.84515	146.35854	-265.56778	82.13219	1567.62036	-834.69031	275.91641	737.94269	-764.01453	-23.15405	1014.04846	-518.01105	-72.41994	143.15659	-729.51996	67.08701	221.33897				-775.34338	-14.60621	200.16273	-799.50073	47.43544	171.42888	-800.69397	177.10085	181.12605	-848.02686	-47.35234	470.35339	-876.03320	-78.59757	141.50241	-841.05066	246.36763	625.25336	-821.60101	-42.16750	608.69183	-822.36987	-38.10992	556.95148	-761.66913	5.33116	522.62677				-950.55688	82.45499	1078.17920	-745.01477	204.17319	810.16327	-846.18335	-65.71504	704.59259	
263	5.240	-765.80432	202.71162	535.09851	-810.28265	271.98401	868.80945	-750.96387	-23.73046	797.72137	-466.62918	240.28252	1349.18872	-678.62122	50.23241	164.75179				-829.52710	242.79480	565.29443	-851.90430	255.25551	485.89487	-790.94159	139.65627	566.54828	-478.13327	-98.81497	1354.73718	-665.27600	-72.10541	158.78926	-721.38379	158.19083	221.74144	-777.08783	227.35921	200.84024	-622.86469	-81.91570	156.43900	-882.97809	295.95288	144.63998				-605.62268	16.94304	170.30067	-562.66101	-37.48501	163.26341	-677.99500	176.39301	162.27190	-598.05365	223.72621	173.93668	-666.43927	300.57809	158.36340	-628.99341	307.61331	160.96350	-563.18927	259.46057	165.00180	-527.97302	303.77307	146.21269	-258.42154	81.55075	1553.53467	-837.71844	276.81265	737.25049				-518.16028	-72.30454	143.01329	-729.49652	67.02048	221.40616				-775.28870	-14.67482	200.05371	-799.50073	47.43544	171.42888	-800.81732	177.14778	181.03993	-848.64954	-47.63323	470.06570	-876.03320	-78.59757	141.50241	-843.59637	246.91895	624.43152	-822.78571	-41.93779	607.94202	-823.68481	-37.85491	556.44952	-762.57458	4.91478	522.78278				-952.42938	82.18817	1078.46960	-749.62067	204.17706	809.67523	-847.64581	-66.81515	704.46936	
264	5.260	-767.56226	202.47797	533.85577	-813.47040	272.34024	868.22717	-753.75452	-24.09221	796.64667	-462.34634	240.06099	1339.24866	-678.75214	50.20549	164.83549	-847.89752	-65.11964	704.38397	-831.42798	242.80020	565.01758	-853.66327	255.42053	485.36847	-792.37799	140.15309	566.27405	-472.66257	-98.19674	1343.76892	-665.42999	-72.25863	158.46976	-721.30396	158.12177	221.98245	-777.29407	227.35043	200.78090	-622.91101	-81.88767	156.56572	-882.98694	295.85110	144.53903				-605.74860	16.99122	170.40462	-562.83466	-37.27739	163.17970	-677.96222	176.45511	162.35103	-598.05719	223.92381	173.98000	-666.43927	300.57809	158.36340	-629.06610	307.50003	160.95291	-563.24756	259.43045	164.90030	-527.92401	303.86200	146.28340	-250.99252	81.12712	1539.41345	-840.21002	276.65536	736.00433				-518.22058	-72.20293	143.14200	-729.87170	67.03345	221.39316				-775.35205	-14.67369	199.98256	-799.53308	47.24726	171.23610	-800.73981	177.19330	181.01425	-850.32343	-47.96802	469.59152	-876.03320	-78.59757	141.50241	-845.45880	246.53458	623.93481	-824.99847	-42.34829	607.84180	-825.15729	-38.30474	556.10809	-764.58984	5.41560	522.12903				-955.59961	81.45979	1079.85217	-752.78485	204.32381	809.16699	
265	5.280	-769.57050	202.21159	533.63531	-816.65015	272.82355	867.53534	-756.35614	-23.94880	796.30164	-458.44858	239.80724	1329.43250	-678.90143	50.04867	164.77104	-850.93652	-64.92798	703.23663	-832.95801	242.73001	564.24463	-855.16913	255.43021	484.71906	-794.89954	140.00873	565.73090	-467.74298	-97.79480	1332.97571	-665.51843	-72.21071	158.43227	-722.20923	158.21088	221.97253	-777.43262	227.64008	200.39299	-622.90631	-81.84377	156.41254	-882.87500	295.79645	144.40013				-605.87079	17.04442	170.39130	-562.83466	-37.27739	163.17970	-678.07690	176.53407	162.45544	-598.08966	223.93323	173.95779	-666.45795	300.50998	158.52310	-628.79626	307.91785	161.02495	-563.20593	259.43335	164.82985	-528.16302	303.95285	146.35855	-243.89685	80.78838	1525.53076	-843.30719	276.78268	735.51654				-518.15631	-72.40504	143.08868	-730.08643	66.75114	221.45673				-775.49719	-15.07172	200.07039	-799.71185	47.01260	171.15720	-800.98236	177.23271	180.73361	-851.35870	-48.13218	468.88943	-876.03320	-78.59757	141.50241	-848.10815	246.92604	623.21082	-827.10663	-42.63864	607.22748	-827.18011	-38.54922	555.79108	-765.59729	4.60889	522.73682				-957.56866	81.07320	1080.25244	-755.41211	204.59326	808.36957	
266	5.300	-771.51300	202.13638	533.21924	-820.48083	272.40961	866.81421	-758.82452	-23.86136	795.95038	-453.97913	240.20964	1319.86963	-678.90143	50.04867	164.77104	-852.88489	-66.50485	702.93884	-835.22894	242.46654	563.50269	-856.77252	255.56880	484.01871	-796.50977	139.92180	565.86652	-463.36813	-96.71300	1321.38513	-665.50958	-72.38345	158.31728	-722.51379	158.35771	221.70692	-777.59644	227.65836	200.37608	-623.11487	-82.08976	156.72115	-882.60834	296.06894	144.52896				-606.03717	16.80478	170.54315	-562.83466	-37.27739	163.17970	-678.26862	176.46558	162.41682	-598.42249	224.21071	173.91960	-666.43121	300.43311	158.58911	-628.80566	307.65115	160.98164	-563.26910	259.37265	164.98102	-528.10095	303.90912	146.55981	-236.85004	80.66553	1511.47498	-846.47968	277.18723	735.22192				-518.05469	-72.52972	142.99965	-730.49640	66.65135	221.08734				-775.66486	-15.23456	199.81239	-799.98865	46.94856	171.24812	-800.98859	177.20819	180.92548	-852.92609	-48.35390	468.29449	-876.03320	-78.59757	141.50241	-850.34546	246.93202	622.52667	-828.89465	-42.87216	606.93176	-828.89996	-38.67818	555.55530	-767.72998	4.91529	522.25372				-958.92310	80.64509	1080.47595	-757.21600	205.09735	807.73578	
267	5.320	-772.44312	202.77786	534.31598	-823.06799	272.30078	866.11890	-761.31683	-24.16403	796.05774	-449.86813	240.21507	1309.45581	-678.90143	50.04867	164.77104	-856.32666	-65.77008	701.52747	-836.69653	242.87625	563.11615	-857.71881	255.51924	483.93951	-798.07306	139.98068	565.06323	-458.47147	-96.11568	1310.47766	-665.66528	-72.24712	158.46721	-722.14905	158.35606	221.67322	-777.64636	227.83035	200.03055	-622.86469	-81.91570	156.43900	-882.55463	296.16583	144.67320				-606.11224	16.78921	171.02850	-562.92352	-37.13319	163.38315	-678.24713	176.21411	162.83578	-598.49829	224.12854	173.95204	-666.43927	300.57809	158.36340	-628.93536	307.68948	161.15884	-563.25977	259.31604	165.30878	-528.06482	303.85043	146.21701	-230.49689	80.61955	1497.27478	-849.34747	277.45297	734.63416				-517.95563	-72.41009	143.07336	-730.17371	66.77261	221.32948				-775.65710	-15.29663	199.77597	-800.05493	46.65280	171.19420	-801.19348	177.36275	180.87155	-853.52631	-48.60441	468.13174	-876.03320	-78.59757	141.50241	-852.48816	246.69524	621.70990	-830.26111	-42.90272	606.22662	-830.07214	-38.78914	555.23016	-768.49908	4.45733	522.28333				-959.44800	81.19395	1079.94861	-761.11346	204.94472	806.78412	
